REM DIRINDEX 1\2\6,1\2\4\7,1\2\4\8,1\2\5\9,1\3\12,1\3\10\13,1\3\10\14,1\3\10\15,1\3\11\16,1\3\11\17
REM DIRNAME folder01,folder02,folder03,folder04,folder05,folder06,folder07,folder08,folder09,folder10,folder11,folder12,folder13,folder14,folder15,folder16,folder17
TITLE ""
FILE "024.mp3" MP3
  TRACK 01 AUDIO
    TITLE "6:cjc048_00554"
    INDEX 01 00:00:00
  TRACK 02 AUDIO
    TITLE "9:cjc048_00555"
    INDEX 01 00:02:20
  TRACK 03 AUDIO
    TITLE "0:"
    INDEX 01 00:03:39
  TRACK 04 AUDIO
    TITLE "9:cjc048_00556"
    INDEX 01 00:04:25
  TRACK 05 AUDIO
    TITLE "0:"
    INDEX 01 00:05:26
  TRACK 06 AUDIO
    TITLE "9:cjc048_00557"
    INDEX 01 00:06:02
  TRACK 07 AUDIO
    TITLE "0:"
    INDEX 01 00:06:59
  TRACK 08 AUDIO
    TITLE "9:cjc048_00558"
    INDEX 01 00:07:47
  TRACK 09 AUDIO
    TITLE "0:"
    INDEX 01 00:08:62
  TRACK 10 AUDIO
    TITLE "9:cjc048_00559"
    INDEX 01 00:09:49
  TRACK 11 AUDIO
    TITLE "0:"
    INDEX 01 00:10:51
  TRACK 12 AUDIO
    TITLE "9:cjc048_00560"
    INDEX 01 00:11:25
  TRACK 13 AUDIO
    TITLE "0:"
    INDEX 01 00:12:36
  TRACK 14 AUDIO
    TITLE "9:cjc048_00561"
    INDEX 01 00:13:24
  TRACK 15 AUDIO
    TITLE "0:"
    INDEX 01 00:14:23
  TRACK 16 AUDIO
    TITLE "9:cjc048_00562"
    INDEX 01 00:15:09
  TRACK 17 AUDIO
    TITLE "0:"
    INDEX 01 00:16:14
  TRACK 18 AUDIO
    TITLE "9:cjc048_00563"
    INDEX 01 00:17:02
  TRACK 19 AUDIO
    TITLE "0:"
    INDEX 01 00:18:05
  TRACK 20 AUDIO
    TITLE "9:cjc048_00564"
    INDEX 01 00:18:64
  TRACK 21 AUDIO
    TITLE "0:"
    INDEX 01 00:19:73
  TRACK 22 AUDIO
    TITLE "9:cjc048_00565"
    INDEX 01 00:20:59
  TRACK 23 AUDIO
    TITLE "0:"
    INDEX 01 00:21:60
  TRACK 24 AUDIO
    TITLE "9:cjc048_00566"
    INDEX 01 00:22:46
  TRACK 25 AUDIO
    TITLE "0:"
    INDEX 01 00:23:55
  TRACK 26 AUDIO
    TITLE "9:cjc048_00567"
    INDEX 01 00:24:41
  TRACK 27 AUDIO
    TITLE "0:"
    INDEX 01 00:25:39
  TRACK 28 AUDIO
    TITLE "9:cjc048_00568"
    INDEX 01 00:26:24
  TRACK 29 AUDIO
    TITLE "0:"
    INDEX 01 00:27:30
  TRACK 30 AUDIO
    TITLE "9:cjc048_00569"
    INDEX 01 00:28:13
  TRACK 31 AUDIO
    TITLE "0:"
    INDEX 01 00:29:21
  TRACK 32 AUDIO
    TITLE "9:cjc048_00570"
    INDEX 01 00:30:16
  TRACK 33 AUDIO
    TITLE "0:"
    INDEX 01 00:31:45
  TRACK 34 AUDIO
    TITLE "9:cjc048_00571"
    INDEX 01 00:32:29
  TRACK 35 AUDIO
    TITLE "0:"
    INDEX 01 00:33:42
  TRACK 36 AUDIO
    TITLE "9:cjc048_00572"
    INDEX 01 00:34:26
  TRACK 37 AUDIO
    TITLE "0:"
    INDEX 01 00:35:27
  TRACK 38 AUDIO
    TITLE "9:cjc048_00573"
    INDEX 01 00:36:11
  TRACK 39 AUDIO
    TITLE "0:"
    INDEX 01 00:37:24
  TRACK 40 AUDIO
    TITLE "9:cjc048_00574"
    INDEX 01 00:38:08
  TRACK 41 AUDIO
    TITLE "0:"
    INDEX 01 00:39:23
  TRACK 42 AUDIO
    TITLE "9:cjc048_00575"
    INDEX 01 00:40:11
  TRACK 43 AUDIO
    TITLE "0:"
    INDEX 01 00:41:24
  TRACK 44 AUDIO
    TITLE "9:cjc048_00576"
    INDEX 01 00:42:10
  TRACK 45 AUDIO
    TITLE "0:"
    INDEX 01 00:43:21
  TRACK 46 AUDIO
    TITLE "9:cjc048_00577"
    INDEX 01 00:44:07
  TRACK 47 AUDIO
    TITLE "0:"
    INDEX 01 00:45:26
  TRACK 48 AUDIO
    TITLE "9:cjc048_00578"
    INDEX 01 00:46:13
  TRACK 49 AUDIO
    TITLE "0:"
    INDEX 01 00:47:42
  TRACK 50 AUDIO
    TITLE "9:cjc048_00579"
    INDEX 01 00:48:28
  TRACK 51 AUDIO
    TITLE "0:"
    INDEX 01 00:49:39
  TRACK 52 AUDIO
    TITLE "9:cjc048_00580"
    INDEX 01 00:50:19
  TRACK 53 AUDIO
    TITLE "0:"
    INDEX 01 00:51:28
  TRACK 54 AUDIO
    TITLE "9:cjc048_00581"
    INDEX 01 00:52:00
  TRACK 55 AUDIO
    TITLE "0:"
    INDEX 01 00:53:17
  TRACK 56 AUDIO
    TITLE "9:cjc048_00582"
    INDEX 01 00:54:01
  TRACK 57 AUDIO
    TITLE "0:"
    INDEX 01 00:54:74
  TRACK 58 AUDIO
    TITLE "9:cjc048_00583"
    INDEX 01 00:55:59
  TRACK 59 AUDIO
    TITLE "0:"
    INDEX 01 00:56:63
  TRACK 60 AUDIO
    TITLE "9:cjc048_00584"
    INDEX 01 00:57:50
  TRACK 61 AUDIO
    TITLE "0:"
    INDEX 01 00:59:06
  TRACK 62 AUDIO
    TITLE "9:cjc048_00585"
    INDEX 01 00:59:69
  TRACK 63 AUDIO
    TITLE "0:"
    INDEX 01 01:01:09
  TRACK 64 AUDIO
    TITLE "9:cjc048_00586"
    INDEX 01 01:01:72
  TRACK 65 AUDIO
    TITLE "0:"
    INDEX 01 01:03:24
  TRACK 66 AUDIO
    TITLE "9:cjc048_00587"
    INDEX 01 01:04:09
  TRACK 67 AUDIO
    TITLE "0:"
    INDEX 01 01:05:34
  TRACK 68 AUDIO
    TITLE "9:cjc048_00588"
    INDEX 01 01:06:12
  TRACK 69 AUDIO
    TITLE "0:"
    INDEX 01 01:07:70
  TRACK 70 AUDIO
    TITLE "9:cjc048_00589"
    INDEX 01 01:08:54
  TRACK 71 AUDIO
    TITLE "0:"
    INDEX 01 01:10:06
  TRACK 72 AUDIO
    TITLE "9:cjc048_00590"
    INDEX 01 01:10:67
  TRACK 73 AUDIO
    TITLE "0:"
    INDEX 01 01:11:72
  TRACK 74 AUDIO
    TITLE "9:cjc048_00591"
    INDEX 01 01:12:62
  TRACK 75 AUDIO
    TITLE "0:"
    INDEX 01 01:13:69
  TRACK 76 AUDIO
    TITLE "9:cjc048_00592"
    INDEX 01 01:14:57
  TRACK 77 AUDIO
    TITLE "0:"
    INDEX 01 01:15:60
  TRACK 78 AUDIO
    TITLE "9:cjc048_00593"
    INDEX 01 01:16:50
  TRACK 79 AUDIO
    TITLE "0:"
    INDEX 01 01:17:63
  TRACK 80 AUDIO
    TITLE "9:cjc048_00594"
    INDEX 01 01:18:47
  TRACK 81 AUDIO
    TITLE "0:"
    INDEX 01 01:19:48
  TRACK 82 AUDIO
    TITLE "9:cjc048_00595"
    INDEX 01 01:20:36
  TRACK 83 AUDIO
    TITLE "0:"
    INDEX 01 01:21:45
  TRACK 84 AUDIO
    TITLE "9:cjc048_00596"
    INDEX 01 01:22:35
  TRACK 85 AUDIO
    TITLE "0:"
    INDEX 01 01:23:30
  TRACK 86 AUDIO
    TITLE "9:cjc048_00597"
    INDEX 01 01:24:16
  TRACK 87 AUDIO
    TITLE "0:"
    INDEX 01 01:25:41
  TRACK 88 AUDIO
    TITLE "9:cjc048_00598"
    INDEX 01 01:26:27
  TRACK 89 AUDIO
    TITLE "0:"
    INDEX 01 01:27:24
  TRACK 90 AUDIO
    TITLE "9:cjc048_00599"
    INDEX 01 01:28:10
  TRACK 91 AUDIO
    TITLE "0:"
    INDEX 01 01:29:21
  TRACK 92 AUDIO
    TITLE "9:cjc048_00600"
    INDEX 01 01:30:13
  TRACK 93 AUDIO
    TITLE "0:"
    INDEX 01 01:31:20
